<?xml version="1.0" encoding="UTF-8"?><svg id="Layer_2" xmlns="http://www.w3.org/2000/svg" viewBox="0 0 821.33 220.5"><defs><style>.cls-1{fill:#d21131;}.cls-1,.cls-2{stroke-width:0px;}.cls-2{fill:#fff;}</style></defs><g id="myEICAR"><path class="cls-2" d="m747.34,78.33c10.06,19.44,20.02,38.68,29.98,57.91-.78.47-1.35.32-1.88.32-8.87.01-17.75-.03-26.62.05-1.5.01-2.24-.5-2.88-1.83-7.99-16.44-16.01-32.86-24.08-49.26-1.69-3.43-.66-2.8-4.61-2.83-4.4-.04-8.79,0-13.19-.01-2.9,0-2.53-.03-2.53,2.64,0,15.91,0,31.81,0,47.72,0,.4,0,.8,0,1.2.01,2.68.02,2.33-2.32,2.33-7.43,0-14.87,0-22.3,0-1.8,0-1.83-.03-1.83-1.85-.01-6.23,0-12.47,0-18.7,0-37.25,0-74.49,0-111.74,0-3.34-.45-2.9,2.93-2.9,17.43,0,34.86-.16,52.28.1,11.04.17,21.04,3.65,29.24,11.36,6.77,6.37,10.61,14.28,11.93,23.44,1.08,7.5.5,14.84-2.47,21.86-3.83,9.05-10.52,15.29-19.43,19.23-.65.29-1.31.56-2.22.95Zm-45.81-35.79c0,5.19,0,10.38,0,15.58,0,2.33-.38,2.4,2.26,2.4,7.67-.01,15.34,0,23.01,0,1.93,0,3.83-.21,5.69-.7,7.73-2.01,12.79-8.39,13.01-16.38.23-8.31-4.28-14.86-11.97-17.38-2.06-.68-4.19-1.07-6.35-1.09-7.99-.05-15.98-.03-23.97-.01-1.64,0-1.68.04-1.68,1.76-.02,5.27,0,10.54,0,15.82Z"/><path class="cls-2" d="m265.65,69.01c0-21.66,0-43.33,0-64.99,0-3.11-.34-2.64,2.68-2.64,27.9-.01,55.81-.01,83.71,0,2.85,0,2.58-.43,2.59,2.51.01,6.32,0,12.63,0,18.95,0,2.38.22,2.13-2.22,2.13-19.11,0-38.22,0-57.33,0-.48,0-.97.06-1.44-.01-1.33-.19-1.59.46-1.59,1.64.04,9.43.01,18.87.03,28.3,0,1.64.04,1.68,1.72,1.68,8.64.01,17.27,0,25.91,0,7.84,0,15.67,0,23.51,0,2.14,0,2.16-.23,2.16,2.01-.01,6.56,0,13.11,0,19.67,0,1.98.14,1.88-2.02,1.88-12.55,0-25.11,0-37.66,0-4,0-8-.01-11.99,0-1.59,0-1.62.04-1.62,1.8-.01,9.75-.01,19.51,0,29.26,0,1.77.03,1.8,1.89,1.8,11.67,0,23.35,0,35.02,0,7.84,0,15.67,0,23.51,0,2.27,0,2.14-.19,2.14,1.99,0,6.56,0,13.11,0,19.67,0,1.9-.03,1.91-2,1.91-28.3,0-56.61,0-84.91,0-2.21,0-2.07.18-2.06-2.33,0-21.74,0-43.49,0-65.23Z"/><path class="cls-2" d="m94.71,88.92c-4.38,1.66-8.2,4.27-11.84,7.16-6.78,5.39-12.71,11.67-18.69,17.9-1.37,1.43-2.74,2.84-3.83,4.56-1.63,2.56-4.27,3.83-7.27,4.09-2.94.26-4.34-1.51-3.57-4.37.25-.92.65-1.8,1.03-2.68,4.06-9.47,8.84-18.59,13.44-27.81.57-1.14,1.15-2.28,1.42-3.54.48-2.27-.52-3.19-2.77-2.51-1.46.44-2.82,1.13-4.11,1.93-5.06,3.13-9.51,7.02-13.58,11.34-6.38,6.76-11.94,14.17-17.42,21.66-3.49,4.77-7.06,9.49-10.54,14.27-2.09,2.86-4.64,5-8.08,6.07-1.75.54-3.4,1.4-5.2,1.8-.7.16-1.41.3-2.12.32-1.56.03-1.89-.44-1.29-1.86,4.96-11.69,8.63-23.86,13-35.76.16-.43.26-.88.36-1.23-.74-.61-.95-.05-1.23.29-2.03,2.47-4.04,4.96-6.09,7.41-.49.58-.88,1.38-2.06,1.34-.61-2.55,0-4.84,1.54-6.91,2-2.7,4.06-5.35,6.06-8.04,1.86-2.5,3.6-5.09,5.19-7.77,1.83-3.09,3.63-6.19,4.28-9.81.16-.86.47-1.69.76-2.52.76-2.18,2.35-3.42,4.59-3.69,1.9-.23,3.83-.2,5.72.28,2.91.74,3.6,1.95,2.47,4.69-2.09,5.09-4.3,10.14-6.38,15.24-3.02,7.39-5.83,14.85-8.52,22.37-.25.71-.77,1.38-.43,2.28,1.07-.16,1.42-1.04,1.95-1.67,8.1-9.59,16.43-18.98,25.54-27.63,5.16-4.91,10.53-9.57,16.44-13.57,2.72-1.84,5.54-3.49,8.82-4.18.87-.18,1.73-.3,2.61-.25,2.79.15,4.41,1.68,4.73,4.46.27,2.34-.08,4.62-.79,6.85-.66,2.06-1.51,4.03-2.43,5.98-2.59,5.49-5.15,10.98-7.73,16.47-.1.23-.44.47-.12.72.34.27.44-.13.61-.32,2.69-2.26,5.38-4.51,8.06-6.77,3.61-3.04,7.41-5.83,11.34-8.44,5.11-3.39,10.64-5.81,16.6-7.22,1.71-.4,3.44-.75,5.21-.43,2.13.38,2.83,1.62,2.02,3.63-.21.51-.51.99-.82,1.45-7.1,10.7-12.07,22.29-14.52,34.92-.57,2.92-.54,5.89.26,8.79.94,3.42,3.19,4.8,6.67,4.24,2.18-.35,4.09-1.34,5.92-2.48,4.57-2.84,8.65-6.31,12.52-10.02,4.79-4.59,9.39-9.38,13.82-14.32.97-1.08,1.74-2.26,2.43-3.53,4.06-7.48,8.9-14.41,14.75-20.6,1.98-2.1,4.1-4.05,6.62-5.5,2.45-1.41,5.04-1.96,7.83-1.23,2.32.61,3.92,2.09,4.96,4.2.68,1.39.5,2.17-.74,3.09-6.96,5.2-13.08,11.3-18.39,18.14-4.77,6.14-7.67,13.23-9.22,20.84-.22,1.08-.19,2.24-.11,3.34.24,3.52,2.36,5.52,5.88,5.64,2.05.07,3.96-.47,5.8-1.28,3.61-1.6,6.87-3.75,9.72-6.49,7.91-7.61,15.18-15.78,21.76-24.56,6.71-8.96,13.61-17.76,20.82-26.33.36-.43.82-.82,1.03-1.32.9-2.07,2.67-2.38,4.59-2.26,3.27.21,6.22,1.41,8.88,3.27,1.79,1.25,1.87,1.72.95,3.8-8.44,19.04-16.8,38.12-25.54,57.03-.28.61-.84,1.18-.59,2.14,1.24-.47,2.23-1.24,3.23-1.96,13.17-9.59,25.23-20.39,35.71-32.9.62-.73,1.18-1.52,1.98-2.07.55-.38,1.13-.64,1.78-.27.65.36.75,1.03.73,1.66-.05,1.22-.48,2.35-1.2,3.33-.9,1.22-1.79,2.46-2.8,3.59-12.06,13.54-25.26,25.85-40.18,36.18-3.51,2.43-5.85,5.23-7.6,9.04-5.12,11.09-10.36,22.12-16.19,32.86-4.51,8.31-9.56,16.25-15.91,23.3-3.17,3.52-6.68,6.65-10.6,9.31-3.43,2.33-7.16,3.86-11.3,4.3-4.5.47-8.81-.4-12.68-2.65-5.71-3.33-7.56-8.32-5.87-14.73.8-3.05,2.18-5.83,3.89-8.45,6.19-9.54,13.91-17.68,22.73-24.84,10.63-8.63,22.04-16.15,33.43-23.69,1.39-.92,2.36-1.99,3.07-3.5,8.39-17.93,16.98-35.76,24.17-54.22.38-.98,1-1.94.91-3.23-1.11.44-1.55,1.33-2.1,2.05-5.3,6.91-10.52,13.89-15.88,20.75-4.58,5.86-9.44,11.49-14.81,16.65-2.95,2.83-6.17,5.32-9.64,7.49-4.63,2.89-9.61,4.19-15.07,3.7-6.74-.6-11.57-3.45-13.25-12.42-.51-2.7-.22-5.4.08-8.14-.99.01-1.28.78-1.74,1.27-5.56,5.88-11.38,11.45-17.95,16.21-4.42,3.21-9.31,5.19-14.79,5.7-1.94.18-3.85.03-5.71-.41-4.91-1.16-7.98-4.67-8.83-9.89-.73-4.5-.06-8.93.72-13.34,1.49-8.49,4.42-16.48,8.57-24.02.23-.42.41-.86.62-1.29.07-.18.25-.43.19-.52-.21-.3-.47-.13-.69.05Zm78.74,65.11c-.25.66-.89.88-1.38,1.26-4.03,3.15-8.09,6.25-12.11,9.42-9.05,7.12-17.88,14.5-26.07,22.61-4.25,4.22-7.63,9-9.42,14.81-.77,2.49-1.06,5.01-.71,7.57.49,3.54,2.71,5.34,6.26,5.21.8-.03,1.57-.2,2.34-.44,2.57-.79,4.77-2.21,6.84-3.87,6.1-4.9,11.16-10.71,15.36-17.31,7.71-12.11,12.69-25.58,19.12-38.32.18-.36.29-.75-.22-.96-.02.23.05.42.3.47.04,0,.09-.1.14-.15-.15-.1-.31-.2-.46-.3ZM14.22,98.49c-.04-.05-.08-.1-.13-.15-.05.05-.09.09-.14.14.06.05.13.11.19.16.02-.05.05-.1.07-.14Zm-.44,1.05c-.06-.1-.11-.2-.17-.31-.05.05-.16.12-.15.16.03.11.1.22.15.32l.17-.17Zm5.59,16c-.05.05-.16.12-.15.16.03.11.1.22.15.32.05-.05.16-.12.15-.16-.03-.11-.1-.22-.15-.32Z"/><path class="cls-2" d="m658.16,136.36c-.44.34-.93.2-1.38.2-7.99,0-15.99-.04-23.98.05-1.47.01-2.06-.48-2.49-1.83-2.18-6.76-4.46-13.48-6.71-20.22-.64-1.92-.65-1.93-2.6-1.93-14.71,0-29.42.02-44.13-.04-1.44,0-2.08.42-2.53,1.79-2.24,6.82-4.62,13.6-6.86,20.42-.45,1.36-1.08,1.82-2.52,1.8-8.07-.07-16.15-.03-24.22-.04-.4,0-.79-.04-1.19-.06-.14-.81.24-1.44.49-2.1,15.9-43.71,31.79-87.42,47.69-131.13.69-1.89.69-1.9,2.66-1.9,5.6,0,11.19-.01,16.79,0,2.34,0,1.89-.21,2.65,1.88,10.06,27.5,20.11,55,30.16,82.5,5.86,16.04,11.72,32.07,17.56,48.11.29.8.85,1.56.64,2.49Zm-42.33-46.15c-5.46-16.25-10.85-32.28-16.4-48.82-5.75,16.57-11.33,32.62-16.96,48.82h33.36Z"/><path class="cls-2" d="m533.12,42.73c-.82.46-1.56.28-2.26.29-7.43.01-14.87.01-22.3,0-2.26,0-2.28,0-2.9-2.1-.75-2.54-1.78-4.95-3.19-7.2-3.69-5.91-9.09-9.07-15.94-9.74-3.27-.32-6.54-.16-9.74.77-7.35,2.12-12.12,6.85-14.31,14.15-1.29,4.31-1.67,8.78-1.91,13.25-.6,11.18-.6,22.36,0,33.54.2,3.75.57,7.48,1.37,11.16,2.15,9.97,9.04,16.26,19.24,17.12,9.43.79,17.13-2.3,22.08-10.82,1.25-2.15,2.18-4.45,2.78-6.86.27-1.06.71-1.41,1.79-1.4,8.15.04,16.31.02,24.46.03.23,0,.46.09.83.17-.29,3.04-1.15,5.94-2.07,8.81-3.77,11.68-10.47,21.11-21.26,27.32-6.19,3.56-12.91,5.5-19.99,6.14-10.02.9-19.84.03-28.99-4.49-14.51-7.18-23.46-18.57-25.77-34.86-1.22-8.58-1.28-17.2-1.33-25.83-.04-7.91-.04-15.82.43-23.72.36-5.99,1.05-11.95,3.03-17.65,4.36-12.62,13.11-21.36,25.18-26.43,14.26-5.98,28.87-5.78,43.15.18,12.72,5.31,20.61,15.23,25.09,28.05,1.15,3.3,2.13,6.66,2.53,10.11Z"/><path class="cls-2" d="m380.4,68.74c0-21.58,0-43.16,0-64.74,0-3.02-.37-2.63,2.7-2.64,7.11-.02,14.23-.01,21.34,0,2.67,0,2.38-.31,2.38,2.47,0,38.76,0,77.52,0,116.28,0,4.88,0,9.75,0,14.63,0,1.79-.03,1.81-1.85,1.82-7.51.01-15.03,0-22.54,0-2.01,0-2.03-.02-2.03-2.13,0-21.9,0-43.8,0-65.69Z"/><path class="cls-1" d="m805.87,106.21c8.46-.08,15.38,6.66,15.46,15.04.09,8.75-6.63,15.68-15.26,15.75-8.44.06-15.22-6.72-15.5-15.06-.27-7.75,6.16-15.75,15.3-15.72Z"/></g></svg>