<?xml version="1.0" encoding="UTF-8"?>
<svg id="Layer_2" xmlns="http://www.w3.org/2000/svg" viewBox="0 0 790.56 230.31">
    <defs>
        <style>
            .cls-1 {
                fill: none;
            }

            .cls-1,
            .cls-2,
            .cls-3 {
                stroke-width: 0px;
            }

            .cls-3 {
                fill: #040405;
            }
        </style>
    </defs>
    <g id="myYnov">
        <path class="cls-1" d="m173.47,153.62s0,.02,0,.03c.1.07.2.13.3.2-.06-.09-.15-.17-.31-.23Z" />
        <path class="cls-1"
            d="m19.21,115.31c.03.11.1.22.15.32.05-.05.16-.12.15-.16-.03-.11-.1-.22-.15-.32-.05.05-.16.12-.15.16Z" />
        <path class="cls-1"
            d="m173.77,154.09c-.24-.05-.31-.22-.3-.44,0,0,0,0-.01,0-.25.66-.89.88-1.38,1.26-4.03,3.15-8.09,6.25-12.11,9.42-9.05,7.12-17.88,14.5-26.07,22.61-4.25,4.22-7.63,9-9.42,14.81-.77,2.49-1.06,5.01-.71,7.57.49,3.54,2.71,5.34,6.26,5.21.8-.03,1.57-.2,2.34-.44,2.57-.79,4.77-2.21,6.84-3.87,6.1-4.9,11.16-10.71,15.36-17.31,7.71-12.11,12.69-25.58,19.12-38.32.09-.18.17-.37.15-.54-.03.03-.05.06-.07.06Z" />
        <path class="cls-1"
            d="m13.95,98.09c.06.05.13.11.19.16.02-.05.05-.1.07-.14-.04-.05-.08-.1-.13-.16-.05.05-.09.09-.14.14Z" />
        <path class="cls-1" d="m173.77,153.85c.04.06.06.12.07.19.02-.03.05-.07.07-.09-.05-.03-.09-.06-.14-.09Z" />
        <path class="cls-1"
            d="m13.45,99c.03.11.1.22.15.32.05-.05.11-.11.17-.17-.06-.1-.11-.2-.17-.31-.05.05-.16.12-.15.16Z" />
        <ellipse class="cls-1" cx="583.34" cy="69.88" rx="36.79" ry="36.6" />
        <path class="cls-2"
            d="m428.65.53h-.02c-38.77,0-70.21,31.94-70.21,71.32v67.91h33.44v-67.91c0-20.62,16.47-37.35,36.77-37.35s36.79,16.73,36.79,37.35v67.91h33.44v-67.91c0-39.38-31.43-71.32-70.21-71.32Z" />
        <polygon class="cls-2" points="328.29 .53 240.16 230.31 276.15 230.31 364.28 .53 328.29 .53" />
        <path class="cls-2"
            d="m282.62,72.74c0-4.66-.89-9.13-2.49-13.18L257.5.53h-35.97l40.05,104.42c12.43-5.07,21.05-17.46,21.05-32.2Z" />
        <polygon class="cls-2" points="754.59 .53 754.59 .53 701.18 139.76 737.17 139.76 790.56 .53 754.59 .53" />
        <path class="cls-2"
            d="m583.34,0c-38.79,0-70.21,31.29-70.21,69.88s31.43,69.88,70.21,69.88,70.21-31.29,70.21-69.88S622.11,0,583.34,0Zm0,106.48c-20.32,0-36.79-16.39-36.79-36.6s16.47-36.6,36.79-36.6,36.79,16.39,36.79,36.6-16.47,36.6-36.79,36.6Z" />
        <path class="cls-2"
            d="m706.41,59.56L683.78.53h-35.99l40.05,104.42c12.43-5.07,21.05-17.46,21.05-32.2,0-4.66-.87-9.13-2.47-13.18Z" />
        <path class="cls-3"
            d="m173.47,153.65c0,.22.06.39.3.44.02,0,.04-.02.07-.06,0-.07-.03-.13-.07-.19-.1-.07-.2-.13-.3-.2Z" />
        <path class="cls-3"
            d="m240.4,96.41c-.65-.37-1.23-.1-1.78.27-.81.55-1.37,1.34-1.98,2.07-10.48,12.51-22.54,23.31-35.71,32.9-1,.72-1.99,1.49-3.23,1.96-.25-.96.31-1.53.59-2.14,8.74-18.91,17.1-37.99,25.54-57.03.92-2.07.84-2.54-.95-3.8-2.67-1.87-5.61-3.07-8.88-3.27-1.91-.12-3.68.18-4.59,2.26-.22.49-.67.89-1.03,1.32-7.2,8.57-14.11,17.37-20.82,26.33-6.58,8.78-13.86,16.96-21.76,24.56-2.85,2.74-6.11,4.89-9.72,6.49-1.84.82-3.75,1.35-5.8,1.28-3.51-.13-5.64-2.12-5.88-5.64-.07-1.11-.11-2.27.11-3.34,1.56-7.61,4.46-14.69,9.22-20.84,5.31-6.84,11.42-12.94,18.39-18.14,1.24-.92,1.42-1.7.74-3.09-1.03-2.11-2.64-3.58-4.96-4.2-2.79-.74-5.38-.19-7.83,1.23-2.52,1.45-4.64,3.4-6.62,5.5-5.84,6.2-10.69,13.13-14.75,20.6-.69,1.28-1.47,2.46-2.43,3.53-4.44,4.94-9.03,9.72-13.82,14.32-3.87,3.71-7.95,7.18-12.52,10.02-1.83,1.14-3.74,2.14-5.92,2.48-3.48.56-5.73-.83-6.67-4.24-.8-2.9-.82-5.87-.26-8.79,2.45-12.62,7.42-24.22,14.52-34.92.31-.46.62-.94.82-1.45.81-2,.11-3.25-2.02-3.63-1.77-.31-3.51.03-5.21.43-5.97,1.4-11.5,3.82-16.6,7.22-3.93,2.61-7.73,5.4-11.34,8.44-2.69,2.26-5.37,4.52-8.06,6.77-.16.19-.26.59-.61.32-.32-.25.02-.49.12-.72,2.57-5.49,5.14-10.99,7.73-16.47.92-1.95,1.77-3.92,2.43-5.98.71-2.24,1.06-4.51.79-6.85-.32-2.78-1.94-4.31-4.73-4.46-.88-.05-1.74.06-2.61.25-3.28.69-6.1,2.34-8.82,4.18-5.91,4-11.28,8.67-16.44,13.57-9.11,8.66-17.44,18.04-25.54,27.63-.53.62-.88,1.51-1.95,1.67-.34-.9.17-1.58.43-2.28,2.68-7.52,5.5-14.98,8.52-22.37,2.08-5.1,4.28-10.14,6.38-15.24,1.13-2.74.43-3.95-2.47-4.69-1.89-.48-3.81-.51-5.72-.28-2.24.27-3.83,1.51-4.59,3.69-.29.83-.6,1.66-.76,2.52-.66,3.61-2.46,6.72-4.28,9.81-1.59,2.68-3.33,5.27-5.19,7.77-2,2.7-4.06,5.35-6.06,8.04-1.54,2.08-2.15,4.36-1.54,6.91,1.17.03,1.57-.76,2.06-1.34,2.05-2.45,4.06-4.94,6.09-7.41.28-.34.49-.9,1.23-.29-.1.35-.2.81-.36,1.23-4.37,11.91-8.04,24.07-13,35.76-.6,1.42-.28,1.89,1.29,1.86.71-.01,1.43-.16,2.12-.32,1.8-.41,3.45-1.26,5.2-1.8,3.44-1.07,5.99-3.21,8.08-6.07,3.49-4.78,7.05-9.49,10.54-14.27,5.47-7.49,11.04-14.9,17.42-21.66,4.07-4.32,8.52-8.2,13.58-11.34,1.29-.8,2.65-1.49,4.11-1.93,2.25-.67,3.25.25,2.77,2.51-.27,1.26-.85,2.4-1.42,3.54-4.59,9.21-9.38,18.34-13.44,27.81-.38.88-.78,1.76-1.03,2.68-.76,2.86.63,4.62,3.57,4.37,3-.26,5.64-1.53,7.27-4.09,1.1-1.72,2.46-3.13,3.83-4.56,5.98-6.23,11.91-12.51,18.69-17.9,3.64-2.89,7.45-5.5,11.84-7.16.22-.17.48-.35.69-.05.06.09-.12.34-.19.52-.2.43-.39.87-.62,1.29-4.15,7.55-7.07,15.54-8.57,24.02-.78,4.41-1.45,8.84-.72,13.34.85,5.22,3.92,8.73,8.83,9.89,1.86.44,3.77.59,5.71.41,5.48-.51,10.37-2.5,14.79-5.7,6.56-4.76,12.39-10.33,17.95-16.21.46-.48.74-1.25,1.74-1.27-.3,2.74-.59,5.44-.08,8.14,1.68,8.96,6.51,11.82,13.25,12.42,5.46.49,10.45-.82,15.07-3.7,3.47-2.17,6.69-4.66,9.64-7.49,5.37-5.16,10.24-10.79,14.81-16.65,5.36-6.87,10.58-13.84,15.88-20.75.56-.73.99-1.62,2.1-2.05.08,1.28-.53,2.24-.91,3.23-7.19,18.46-15.78,36.29-24.17,54.22-.71,1.52-1.68,2.59-3.07,3.5-11.39,7.54-22.8,15.06-33.43,23.69-8.81,7.15-16.53,15.3-22.73,24.84-1.7,2.62-3.08,5.4-3.89,8.45-1.69,6.41.16,11.41,5.87,14.73,3.87,2.25,8.18,3.13,12.68,2.65,4.14-.44,7.87-1.97,11.3-4.3,3.92-2.66,7.43-5.79,10.6-9.31,6.35-7.05,11.4-15,15.91-23.3,5.83-10.74,11.07-21.78,16.19-32.86,1.76-3.81,4.09-6.61,7.6-9.04,14.92-10.32,28.12-22.64,40.18-36.18,1.01-1.13,1.9-2.36,2.8-3.59.72-.98,1.15-2.11,1.2-3.33.02-.64-.08-1.3-.73-1.66Zm-226.79,2.91c-.05-.11-.12-.21-.15-.32,0-.04.1-.1.15-.16.06.1.12.21.17.31-.06.06-.12.12-.17.17Zm.54-1.07c-.06-.05-.13-.11-.19-.16.05-.05.09-.09.14-.14.04.05.08.1.13.16-.02.05-.05.1-.07.14Zm5.22,17.38c-.05-.11-.12-.21-.15-.32,0-.04.1-.1.15-.16.05.11.12.21.15.32,0,.04-.1.1-.15.16Zm154.33,38.95c-6.43,12.75-11.41,26.21-19.12,38.32-4.2,6.6-9.26,12.41-15.36,17.31-2.07,1.66-4.27,3.08-6.84,3.87-.77.24-1.54.41-2.34.44-3.55.14-5.77-1.67-6.26-5.21-.35-2.56-.06-5.08.71-7.57,1.79-5.8,5.17-10.59,9.42-14.81,8.19-8.11,17.02-15.49,26.07-22.61,4.02-3.16,8.08-6.27,12.11-9.42.49-.38,1.14-.61,1.38-1.26,0,0,0,0,.01,0,0-.01,0-.02,0-.03.15.06.25.14.31.23.05.03.09.06.14.09-.02.03-.05.06-.07.09.02.17-.06.36-.15.54Z" />
    </g>
</svg>