<svg width="36" height="30" viewBox="0 0 36 30" xmlns="http://www.w3.org/2000/svg">
    <path fill-rule="evenodd" clip-rule="evenodd"
        d="M10.7078 3.16294C8.54893 3.16294 6.8311 4.87556 6.8311 6.94888C6.8311 8.06322 7.32244 9.06732 8.11673 9.765C8.77551 10.3437 8.8372 11.3431 8.25451 11.9973C7.67181 12.6516 6.66539 12.7128 6.0066 12.1342C4.56309 10.8662 3.64611 9.01384 3.64611 6.94888C3.64611 3.09353 6.82555 0 10.7078 0C12.5098 0 14.1598 0.666364 15.409 1.76359C16.0677 2.34226 16.1294 3.34171 15.5467 3.99594C14.964 4.65017 13.9576 4.71143 13.2988 4.13277C12.6128 3.53017 11.7073 3.16294 10.7078 3.16294ZM20.591 1.76359C21.8402 0.666364 23.4902 0 25.2922 0C29.1745 0 32.3539 3.09353 32.3539 6.94888C32.3539 9.01384 31.4369 10.8662 29.9934 12.1342C29.3346 12.7128 28.3282 12.6516 27.7455 11.9973C27.1628 11.3431 27.2245 10.3437 27.8833 9.765C28.6776 9.06732 29.1689 8.06322 29.1689 6.94888C29.1689 4.87556 27.4511 3.16294 25.2922 3.16294C24.2927 3.16294 23.3872 3.53017 22.7012 4.13277C22.0424 4.71143 21.036 4.65017 20.4533 3.99594C19.8706 3.34171 19.9323 2.34226 20.591 1.76359ZM18 8.53035C15.8412 8.53035 14.1233 10.243 14.1233 12.3163C14.1233 14.3896 15.8412 16.1022 18 16.1022C20.1589 16.1022 21.8767 14.3896 21.8767 12.3163C21.8767 10.243 20.1589 8.53035 18 8.53035ZM10.9383 12.3163C10.9383 8.46094 14.1178 5.36741 18 5.36741C21.8822 5.36741 25.0617 8.46094 25.0617 12.3163C25.0617 16.1716 21.8822 19.2652 18 19.2652C14.1178 19.2652 10.9383 16.1716 10.9383 12.3163ZM8.60326 17.7344C8.82383 18.5799 8.31244 19.4429 7.46104 19.6619C6.03301 20.0293 4.91097 20.6116 4.17769 21.2587C3.44817 21.9026 3.18499 22.5257 3.18499 23.0518C3.18499 23.9252 2.472 24.6333 1.59249 24.6333C0.712984 24.6333 0 23.9252 0 23.0518C0 21.3769 0.861733 19.9537 2.06196 18.8945C3.25843 17.8386 4.87097 17.0609 6.66229 16.6001C7.51369 16.381 8.38269 16.8889 8.60326 17.7344ZM27.3967 17.7344C27.6173 16.8889 28.4863 16.381 29.3377 16.6001C31.129 17.0609 32.7416 17.8386 33.938 18.8945C35.1383 19.9537 36 21.3769 36 23.0518C36 23.9252 35.287 24.6333 34.4075 24.6333C33.528 24.6333 32.815 23.9252 32.815 23.0518C32.815 22.5257 32.5518 21.9026 31.8223 21.2587C31.089 20.6116 29.967 20.0293 28.539 19.6619C27.6876 19.4429 27.1762 18.5799 27.3967 17.7344ZM10.7423 23.2629C12.6775 22.1234 15.2472 21.4696 18 21.4696C20.7528 21.4696 23.3225 22.1234 25.2577 23.2629C27.1582 24.3819 28.7078 26.1533 28.7078 28.4185C28.7078 29.292 27.9948 30 27.1153 30C26.2358 30 25.5228 29.292 25.5228 28.4185C25.5228 27.7194 25.0319 26.8071 23.6333 25.9835C22.2694 25.1804 20.2814 24.6326 18 24.6326C15.7186 24.6326 13.7306 25.1804 12.3667 25.9835C10.9681 26.8071 10.4772 27.7194 10.4772 28.4185C10.4772 29.292 9.76423 30 8.88472 30C8.00521 30 7.29223 29.292 7.29223 28.4185C7.29223 26.1533 8.84184 24.3819 10.7423 23.2629Z" />
</svg>