<svg width="31" height="30" viewBox="0 0 31 30" xmlns="http://www.w3.org/2000/svg">
    <path fill-rule="evenodd" clip-rule="evenodd"
        d="M16.4386 3.33819C16.1301 3.24867 15.8008 3.24867 15.4923 3.33819C15.407 3.36293 15.2577 3.42397 14.9395 3.6574C14.6047 3.90313 14.1942 4.25408 13.5537 4.80402L5.55119 11.6755C4.81778 12.3052 4.68016 12.4409 4.58753 12.5748C4.47935 12.7312 4.40048 12.9018 4.35321 13.0793C4.31173 13.2351 4.29907 13.424 4.29907 14.3836V23.4574C4.29907 24.2419 4.29997 24.7482 4.32692 25.1357C4.35284 25.5085 4.39719 25.6504 4.42594 25.7185C4.59555 26.1204 4.92022 26.4389 5.32749 26.6045C5.39685 26.6326 5.54157 26.6762 5.92156 26.7016C6.31652 26.7281 6.83257 26.729 7.63193 26.729C8.43128 26.729 8.94758 26.7281 9.34279 26.7016C9.72317 26.6762 9.86801 26.6326 9.93724 26.6045C10.3445 26.4389 10.669 26.1205 10.8386 25.7187C10.8674 25.6505 10.9118 25.5084 10.9377 25.1356C10.9647 24.748 10.9657 24.2416 10.9657 23.4573V21.8217C10.9657 19.1119 13.2042 16.9152 15.9656 16.9152C18.727 16.9152 20.9655 19.1119 20.9655 21.8217V23.4573C20.9655 24.2417 20.9664 24.7481 20.9934 25.1357C21.0193 25.5086 21.0637 25.6506 21.0924 25.7187C21.262 26.1204 21.5866 26.4389 21.994 26.6045C22.0633 26.6326 22.208 26.6762 22.588 26.7016C22.983 26.7281 23.499 26.729 24.2984 26.729C25.0977 26.729 25.614 26.7281 26.0093 26.7016C26.3896 26.6762 26.5345 26.6326 26.6037 26.6045C27.0108 26.439 27.3354 26.1205 27.5051 25.7185C27.5339 25.6503 27.5782 25.5083 27.6042 25.1355C27.6312 24.7481 27.6321 24.2418 27.6321 23.4574V14.3836C27.6321 13.4265 27.6189 13.2357 27.5772 13.0793C27.5291 12.8987 27.4504 12.7286 27.3441 12.5748C27.2515 12.441 27.1139 12.3054 26.3803 11.6755L18.3804 4.80629C17.7391 4.25562 17.3279 3.90411 16.9926 3.65806C16.6739 3.42425 16.5241 3.36301 16.4386 3.33819ZM14.547 0.201431C15.4725 -0.0671436 16.4584 -0.0671436 17.3839 0.201431C17.9985 0.379809 18.51 0.687157 18.9885 1.03825C19.4394 1.3691 19.9478 1.80565 20.5329 2.30807L28.5753 9.21378C28.611 9.24441 28.6464 9.27476 28.6815 9.30488C29.2441 9.7871 29.7363 10.209 30.102 10.7377C30.422 11.2003 30.6584 11.7122 30.8022 12.2524C30.9667 12.8701 30.9662 13.5115 30.9655 14.2433C30.9655 14.2897 30.9654 14.3365 30.9654 14.3836V23.5074C30.9654 24.2259 30.9655 24.8456 30.9297 25.3585C30.8922 25.898 30.8096 26.4374 30.5846 26.9703C30.0777 28.1713 29.1057 29.128 27.8793 29.6265C27.336 29.8474 26.7858 29.9283 26.2361 29.9651C25.7138 30 25.0827 30 24.3515 30H24.2451C23.514 30 22.8832 30 22.3611 29.9651C21.8114 29.9283 21.2616 29.8473 20.7184 29.6265C19.4923 29.1281 18.5199 28.1717 18.0128 26.9705C17.7878 26.4374 17.7053 25.8978 17.6678 25.3584C17.6322 24.846 17.6322 24.227 17.6322 23.5096V21.8217C17.6322 20.9185 16.8861 20.1862 15.9656 20.1862C15.0451 20.1862 14.299 20.9185 14.299 21.8217L14.299 23.5072C14.299 24.2257 14.299 24.8455 14.2633 25.3585C14.2257 25.898 14.1431 26.4375 13.9182 26.9705C13.4112 28.1716 12.4391 29.1281 11.2128 29.6265C10.6695 29.8474 10.1194 29.9283 9.5696 29.9651C9.04729 30 8.41625 30 7.68508 30H7.57862C6.84755 30 6.21674 30 5.69465 29.9651C5.14494 29.9283 4.5951 29.8473 4.05189 29.6265C2.82566 29.1281 1.85338 28.1715 1.34638 26.9703C1.12139 26.4373 1.03887 25.8978 1.00136 25.3584C0.965738 24.8461 0.965756 24.2272 0.965777 23.5097L0.965778 14.3836C0.965778 14.3335 0.965727 14.2837 0.965676 14.2343C0.964928 13.5082 0.964268 12.868 1.1282 12.2524C1.27286 11.7091 1.51147 11.1976 1.82965 10.7377C2.19548 10.2088 2.68769 9.78688 3.25073 9.30424C3.28562 9.27433 3.32078 9.24419 3.3562 9.21378L11.3587 2.34231L11.4032 2.30414C11.9865 1.80328 12.4935 1.36784 12.9434 1.03772C13.4215 0.686954 13.9326 0.379744 14.547 0.201431Z" />
</svg>