<svg width="20" height="22" viewBox="0 0 20 22" xmlns="http://www.w3.org/2000/svg">
    <g clip-path="url(#clip0_1062_445)">
        <path fill-rule="evenodd" clip-rule="evenodd"
            d="M16.2916 5.77676C16.7299 5.44073 17.3576 5.52364 17.6936 5.96193C18.971 7.62813 19.74 9.71003 19.74 11.9804C19.74 17.4326 15.3223 21.8504 9.87 21.8504C4.41772 21.8504 0 17.4326 0 11.9804C0 10.2337 0.456654 8.59748 1.24552 7.1753C1.51341 6.69234 2.1221 6.51799 2.60506 6.78588C3.08802 7.05378 3.26237 7.66246 2.99448 8.14543C2.36335 9.28324 2 10.5871 2 11.9804C2 16.3281 5.52228 19.8504 9.87 19.8504C14.2177 19.8504 17.74 16.3281 17.74 11.9804C17.74 10.1707 17.129 8.5126 16.1064 7.17879C15.7704 6.7405 15.8533 6.11278 16.2916 5.77676Z" />
        <path fill-rule="evenodd" clip-rule="evenodd"
            d="M10.5846 0.386778C11.0615 0.665431 11.2221 1.27788 10.9435 1.75471C9.92285 3.5012 9.95964 4.86087 10.2664 5.84861C10.5867 6.88021 11.2348 7.61225 11.6126 8.00883C13.0468 9.50154 13.827 10.8209 14.2497 11.802C14.2504 11.8036 14.2511 11.8052 14.2518 11.8067C14.4417 11.605 14.6397 11.3737 14.8317 11.1147C15.6214 10.0492 16.2684 8.5771 15.9181 6.75934C15.8137 6.21703 16.1686 5.6927 16.7109 5.58822C17.2532 5.48374 17.7775 5.83867 17.882 6.38098C18.3718 8.92323 17.4387 10.9561 16.4385 12.3056C15.9385 12.9801 15.4119 13.4994 15.0104 13.8506C14.8088 14.027 14.6363 14.1631 14.5112 14.2572C14.4485 14.3042 14.3975 14.341 14.3603 14.3671C14.3417 14.3802 14.3266 14.3906 14.3152 14.3984L14.3009 14.4081L14.2959 14.4115L14.294 14.4128L14.2931 14.4133C14.2927 14.4136 14.2924 14.4138 13.7401 13.5802L14.2924 14.4138L12.859 15.3634L12.7432 13.6596C12.7426 13.6548 12.7415 13.6456 12.7395 13.6321C12.7343 13.597 12.7234 13.5328 12.7021 13.4419C12.6597 13.2605 12.5757 12.9712 12.4129 12.5933C12.0883 11.8398 11.4439 10.7197 10.1691 9.39307L10.1661 9.39004L10.1661 9.39003C9.73375 8.93627 8.8181 7.92884 8.35632 6.44171C7.88053 4.90945 7.91732 2.96913 9.2167 0.745615C9.49535 0.268781 10.1078 0.108124 10.5846 0.386778Z" />
        <path fill-rule="evenodd" clip-rule="evenodd"
            d="M10.865 1.86958C10.865 1.86958 10.865 1.86957 10.865 1.86958L10.8572 1.87942L10.833 1.91019L10.7389 2.03046C10.657 2.13542 10.5383 2.28808 10.3922 2.47779C10.0999 2.85741 9.69858 3.3843 9.26273 3.97347C8.37976 5.16705 7.39356 6.56469 6.8638 7.51638L6.86251 7.5187C6.22227 8.6617 6.26149 10.0401 6.52984 11.2436C6.6609 11.8315 6.8388 12.3409 6.98415 12.7029C7.05647 12.883 7.11981 13.0244 7.16371 13.1181C7.18563 13.1649 7.20263 13.1996 7.21337 13.2212L7.22459 13.2435L7.22565 13.2456L7.22619 13.2466L8.35001 15.3864L6.04156 14.6644L6.34005 13.71C6.04156 14.6644 6.042 14.6646 6.04156 14.6644L6.03743 14.6631L6.03144 14.6612L6.01403 14.6556C6.00005 14.651 5.98136 14.6447 5.9583 14.6368C5.91222 14.6209 5.84855 14.5982 5.77002 14.5683C5.61321 14.5086 5.39573 14.4196 5.1398 14.2983C4.6316 14.0574 3.95281 13.6799 3.29382 13.1365C1.96138 12.0377 0.652042 10.1923 1.13563 7.48421C1.23271 6.94053 1.75216 6.57849 2.29584 6.67557C2.83953 6.77266 3.20157 7.29211 3.10448 7.83579C2.78901 9.60245 3.58397 10.7803 4.55756 11.5863C4.25831 10.1851 4.14938 8.27078 5.11695 6.54247C5.7173 5.46424 6.77566 3.97253 7.65487 2.78403C8.10027 2.18195 8.50962 1.64446 8.8076 1.25753C8.95667 1.06395 9.07807 0.907783 9.16241 0.799739L9.26002 0.675036L9.29504 0.630528C9.29508 0.630471 9.29511 0.630428 10.015 1.19863L9.29504 0.630528C9.63722 0.197019 10.2661 0.122883 10.6996 0.465065C11.1331 0.807243 11.2072 1.43607 10.865 1.86958Z" />
    </g>
    <defs>
        <clipPath id="clip0_1062_445">
            <rect width="19.74" height="21.6" transform="translate(0 0.25)" />
        </clipPath>
    </defs>
</svg>