<svg width="28" height="30" viewBox="0 0 28 30" xmlns="http://www.w3.org/2000/svg">
    <path fill-rule="evenodd" clip-rule="evenodd"
        d="M7.77778 0C8.63689 0 9.33333 0.671573 9.33333 1.5V3H18.6667V1.5C18.6667 0.671573 19.3631 0 20.2222 0C21.0813 0 21.7778 0.671573 21.7778 1.5V3.00004C22.4919 3.00046 23.1143 3.0047 23.6365 3.04586C24.2514 3.09433 24.8626 3.20136 25.451 3.49047C26.3274 3.92107 27.0434 4.60836 27.4917 5.45671C27.7914 6.02399 27.9023 6.61359 27.9525 7.20595C28.0001 7.76722 28 8.44845 28 9.23759V23.7631C28 24.5522 28.0001 25.2332 27.9525 25.7943C27.9023 26.3865 27.7914 26.9757 27.4917 27.5428C27.0439 28.3903 26.3283 29.0788 25.451 29.5098C24.8629 29.7988 24.252 29.9057 23.6377 29.9542C23.0559 30.0001 22.3497 30 21.5314 30H6.46861C5.65025 30 4.94379 30.0001 4.36172 29.9542C3.74742 29.9058 3.13599 29.7989 2.5477 29.5099C1.66873 29.078 0.9556 28.3887 0.508639 27.5428C0.20877 26.9753 0.0978125 26.3856 0.0475576 25.7926C-5.05836e-05 25.2309 -2.64776e-05 24.5488 1.33792e-06 23.7581V9.24251C-2.64776e-05 8.45176 -5.03982e-05 7.76947 0.0475521 7.20748C0.0977852 6.61442 0.208691 6.02437 0.508639 5.45671C0.956048 4.60998 1.66961 3.9219 2.5477 3.49047C3.13638 3.20123 3.74829 3.09429 4.36331 3.04585C4.88568 3.00471 5.50826 3.00046 6.22222 3.00004V1.5C6.22222 0.671573 6.91867 0 7.77778 0ZM4.61658 6.03589C4.1937 6.0692 4.03694 6.12575 3.96012 6.16349C3.66742 6.3073 3.4298 6.53644 3.28066 6.81868C3.24152 6.89276 3.18288 7.04392 3.14834 7.4517C3.11667 7.82552 3.11191 8.30247 3.11123 9H24.8888C24.8881 8.30143 24.8834 7.82421 24.8517 7.45029C24.8172 7.04331 24.7587 6.89251 24.7197 6.81868C24.5714 6.53806 24.333 6.30813 24.0386 6.16349C23.9615 6.12562 23.805 6.06916 23.383 6.03588C22.9426 6.00117 22.3639 6 21.467 6H6.53364C5.63679 6 5.05751 6.00117 4.61658 6.03589ZM24.8889 12H3.11111V23.7003C3.11111 24.5651 3.11232 25.1234 3.14833 25.5483C3.18285 25.9556 3.24144 26.1066 3.28066 26.1808C3.43024 26.4639 3.6683 26.6935 3.96011 26.8368C4.03667 26.8744 4.19306 26.9309 4.61512 26.9642C5.05525 26.9988 5.63339 27 6.52853 27H21.4715C22.3666 27 22.9444 26.9988 23.3842 26.9642C23.8057 26.9309 23.9619 26.8745 24.0386 26.8368C24.3321 26.6926 24.5709 26.4623 24.7197 26.1808C24.7588 26.1068 24.8173 25.9562 24.8517 25.5498C24.8877 25.1257 24.8889 24.5686 24.8889 23.7054V12ZM6.22222 16.5C6.22222 15.6716 6.91867 15 7.77778 15H7.78089C8.19975 15 8.60091 15.1629 8.89361 15.4518C9.18631 15.7407 9.34581 16.1313 9.33602 16.535L9.33595 16.538C9.32631 16.9359 9.1531 17.3138 8.85445 17.5884C8.55581 17.8631 8.1562 18.0121 7.74361 18.0026L7.74057 18.0025C6.8962 17.983 6.22222 17.3174 6.22222 16.5029V16.5ZM12.4444 16.5C12.4444 15.6716 13.1409 15 14 15H14.0031C14.422 15 14.8231 15.1629 15.1158 15.4518C15.4085 15.7407 15.568 16.1313 15.5582 16.535L15.5582 16.538C15.5485 16.9359 15.3753 17.3138 15.0767 17.5884C14.778 17.8631 14.3784 18.0121 13.9658 18.0026L13.9628 18.0025C13.1184 17.983 12.4444 17.3174 12.4444 16.5029V16.5ZM18.6667 16.5C18.6667 15.6716 19.3631 15 20.2222 15H20.2253C21.0844 15 21.7808 15.6716 21.7808 16.5V16.503C21.7808 16.907 21.6118 17.294 21.312 17.5763C21.0122 17.8585 20.6069 18.0122 20.1881 18.0026L20.185 18.0025C19.3406 17.983 18.6667 17.3174 18.6667 16.5029V16.5ZM6.22222 22.5C6.22222 21.6716 6.91867 21 7.77778 21H7.78089C8.19975 21 8.60091 21.1629 8.89361 21.4518C9.18631 21.7407 9.34581 22.1313 9.33602 22.535L9.33595 22.538C9.32631 22.9359 9.1531 23.3138 8.85445 23.5884C8.55581 23.8631 8.1562 24.0121 7.74361 24.0026L7.74057 24.0025C6.8962 23.983 6.22222 23.3174 6.22222 22.5029V22.5ZM12.4444 22.5C12.4444 21.6716 13.1409 21 14 21H14.0031C14.422 21 14.8231 21.1629 15.1158 21.4518C15.4085 21.7407 15.568 22.1313 15.5582 22.535L15.5582 22.538C15.5485 22.9359 15.3753 23.3138 15.0767 23.5884C14.778 23.8631 14.3784 24.0121 13.9658 24.0026L13.9628 24.0025C13.1184 23.983 12.4444 23.3174 12.4444 22.5029V22.5ZM18.6667 22.5C18.6667 21.6716 19.3631 21 20.2222 21H20.2253C20.6442 21 21.0454 21.1629 21.3381 21.4518C21.6307 21.7407 21.7902 22.1313 21.7805 22.535L21.7804 22.538C21.7708 22.9359 21.5975 23.3138 21.2989 23.5884C21.0002 23.8631 20.6006 24.0121 20.1881 24.0026L20.185 24.0025C19.3406 23.983 18.6667 23.3174 18.6667 22.5029V22.5Z" />
</svg>