<svg width="21" height="16" viewBox="0 0 21 16" xmlns="http://www.w3.org/2000/svg">
    <path fill-rule="evenodd" clip-rule="evenodd"
        d="M18.1606 2.0028C18.1089 2.00043 18.0382 2.0002 17.8998 2.0002H3.09919C2.96077 2.0002 2.89013 2.00043 2.83855 2.0028C2.83033 2.00317 2.82395 2.00356 2.81918 2.0039C2.81748 2.00471 2.8157 2.00569 2.81387 2.00685C2.81024 2.01111 2.80484 2.01761 2.79745 2.0269C2.76405 2.06892 2.72105 2.12787 2.63889 2.24121C2.36253 2.62246 2.18964 2.8622 2.07783 3.04401C2.03759 3.10943 2.01488 3.15271 2.00273 3.17772C2.00478 3.18613 2.00786 3.19362 2.01147 3.2001C2.03828 3.20431 2.07882 3.20951 2.13657 3.21403C2.34363 3.23023 2.63253 3.23096 3.09684 3.23096H4.7117C4.73331 3.23096 4.755 3.23096 4.77674 3.23096C4.78769 3.23096 4.79866 3.23096 4.80963 3.23096L16.2241 3.23096C16.2459 3.23096 16.2677 3.23096 16.2893 3.23096H17.9014C18.3657 3.23096 18.6549 3.23023 18.8623 3.21402C18.9205 3.20947 18.9613 3.20423 18.9882 3.2C18.9919 3.19344 18.995 3.18591 18.9971 3.17752C18.9849 3.15243 18.9622 3.10915 18.922 3.04385C18.8101 2.86186 18.637 2.62199 18.3607 2.24071C18.2791 2.1282 18.236 2.06934 18.203 2.02793C18.1951 2.01809 18.1895 2.01138 18.1859 2.00714C18.1839 2.00585 18.182 2.00478 18.1801 2.0039C18.1753 2.00357 18.1689 2.00318 18.1606 2.0028ZM18.8631 5.21773C18.9168 5.21505 18.9685 5.21182 19.0181 5.20794C19.309 5.1852 19.6895 5.13241 20.0311 4.9174C20.6919 4.50147 21.0573 3.74903 20.9926 2.97833C20.9594 2.58237 20.7802 2.24741 20.6255 1.99592C20.4688 1.74124 20.2499 1.43918 20.0016 1.09667L19.98 1.06692C19.9703 1.05352 19.9604 1.03987 19.9504 1.026C19.8287 0.857429 19.6844 0.65746 19.4964 0.495699C19.2517 0.285131 18.96 0.134221 18.6445 0.0576162C18.4029 -0.00106021 18.1553 -0.000419932 17.9539 0.000100655C17.9355 0.000148339 17.9174 0.000195069 17.8998 0.000195069H3.09919C3.08156 0.000195069 3.06351 0.000148458 3.04507 0.000100893C2.8437 -0.000418978 2.59642 -0.00105746 2.35481 0.0576165C2.03944 0.134201 1.74761 0.285071 1.50287 0.495698C1.31584 0.656665 1.17129 0.857106 1.05164 1.02301C1.04075 1.03812 1.03006 1.05294 1.01957 1.06741C1.01259 1.07703 1.00564 1.08662 0.998713 1.09618C0.750102 1.43912 0.530947 1.74144 0.374197 1.99633C0.219476 2.24792 0.0405263 2.58263 0.00734744 2.97839C-0.057164 3.74789 0.306433 4.50083 0.968213 4.9174C1.3096 5.13229 1.68958 5.18517 1.98056 5.20794C2.03053 5.21184 2.08262 5.21509 2.1367 5.21779C2.12281 5.42679 2.12283 5.66894 2.12286 5.9219C2.12286 5.93263 2.12286 5.94338 2.12286 5.95415L2.12286 11.5926C2.12285 12.1629 2.12283 12.6492 2.15476 13.0485C2.18828 13.4679 2.26175 13.8777 2.45766 14.2706C2.75252 14.862 3.22494 15.3472 3.81162 15.6526C4.20321 15.8565 4.61199 15.9328 5.02657 15.9674C5.41958 16.0002 5.89705 16.0002 6.45235 16.0002H14.5469C15.1021 16.0002 15.5794 16.0002 15.9722 15.9674C16.3868 15.9328 16.7952 15.8565 17.1867 15.6526C17.772 15.3479 18.2465 14.8633 18.5421 14.2705C18.7379 13.8779 18.8113 13.4686 18.8448 13.0498C18.8767 12.6511 18.8767 12.1657 18.8767 11.5965L18.8767 5.91228C18.8767 5.66356 18.8767 5.4246 18.8631 5.21773ZM16.8561 5.24828C16.843 5.24644 16.8246 5.24424 16.7997 5.24216C16.6755 5.23178 16.5031 5.23096 16.1912 5.23096H4.80963C4.4977 5.23096 4.32493 5.23177 4.20022 5.24218C4.17538 5.24425 4.15692 5.24644 4.14382 5.24829C4.14345 5.2487 4.14309 5.24912 4.14273 5.24955C4.14033 5.2643 4.13703 5.28895 4.13404 5.32639C4.12361 5.45693 4.12286 5.63644 4.12286 5.95415V11.5541C4.12286 12.1734 4.12361 12.5791 4.1484 12.8891C4.1723 13.1882 4.2137 13.3104 4.24751 13.3782C4.35679 13.5973 4.52878 13.7712 4.73528 13.8787C4.79411 13.9093 4.9055 13.9503 5.19301 13.9743C5.4928 13.9994 5.88601 14.0002 6.49191 14.0002H14.5073C15.1132 14.0002 15.5061 13.9994 15.8057 13.9744C16.0928 13.9504 16.2041 13.9094 16.2631 13.8787C16.4709 13.7705 16.6437 13.5959 16.7523 13.3781C16.786 13.3104 16.8273 13.1886 16.8512 12.8903C16.8759 12.5809 16.8767 12.1761 16.8767 11.558V5.94437C16.8767 5.62992 16.8759 5.45264 16.8656 5.32369C16.8628 5.28806 16.8596 5.26424 16.8573 5.24967C16.8569 5.2492 16.8565 5.24874 16.8561 5.24828ZM16.8675 5.26507L16.9359 5.23096L16.8675 5.26507ZM7.39209 9.61558C7.39209 9.0633 7.8398 8.61558 8.39209 8.61558H12.6075C13.1597 8.61558 13.6075 9.0633 13.6075 9.61558C13.6075 10.1679 13.1597 10.6156 12.6075 10.6156H8.39209C7.8398 10.6156 7.39209 10.1679 7.39209 9.61558Z" />
</svg>