<svg width="20" height="26" viewBox="0 0 20 26" xmlns="http://www.w3.org/2000/svg">
    <path fill-rule="evenodd" clip-rule="evenodd"
        d="M5.07443 0.500001L10.8708 0.500001C11.0259 0.500001 11.1679 0.500001 11.2953 0.501156C11.6695 0.504548 11.9984 0.517084 12.3383 0.598184C12.7015 0.68485 13.0503 0.827893 13.3703 1.02277C13.733 1.24364 14.0358 1.54496 14.4146 1.92189C14.4367 1.94388 14.4591 1.96612 14.4817 1.98862L18.5002 5.9823C18.5213 6.00329 18.5422 6.02404 18.5629 6.04455C18.945 6.42394 19.2479 6.72462 19.4713 7.08701C19.6671 7.40444 19.8125 7.75152 19.9005 8.11577C19.9826 8.45558 19.9953 8.78525 19.9987 9.15749C19.9999 9.28476 20 9.42642 20 9.58282V20.4562C20 21.1359 20 21.7063 19.9616 22.173C19.9215 22.6608 19.8344 23.1228 19.6099 23.5607C19.2664 24.2308 18.718 24.7741 18.047 25.1139C17.6084 25.336 17.1459 25.4222 16.6564 25.4619C16.1876 25.5 15.6143 25.5 14.9298 25.5L5.07023 25.5C4.38569 25.5 3.81219 25.5 3.34316 25.4619C2.85356 25.4222 2.39068 25.336 1.95198 25.1139C1.27991 24.7735 0.733373 24.2297 0.390407 23.5607C0.165692 23.1224 0.0785625 22.66 0.0383986 22.1716C-2.6945e-05 21.7043 -1.44294e-05 21.133 5.90964e-07 20.4519V5.54865C-1.44294e-05 4.86749 -2.6945e-05 4.29598 0.0383949 3.82848C0.0785445 3.33995 0.16564 2.87725 0.390405 2.43885C0.733659 1.76933 1.28048 1.22644 1.95198 0.886403C2.39098 0.664097 2.85425 0.577888 3.34445 0.538097C3.8141 0.499974 4.3885 0.499986 5.07443 0.500001ZM3.50627 2.53154C3.13862 2.56138 2.96655 2.61444 2.8555 2.67068C2.55931 2.82066 2.31994 3.0591 2.17013 3.3513C2.11463 3.45956 2.06159 3.62827 2.03167 3.9923C2.00079 4.36812 2 4.85692 2 5.58914V20.4114C2 21.1436 2.00079 21.6321 2.03167 22.0077C2.06157 22.3714 2.11458 22.5399 2.17013 22.6483C2.32023 22.9411 2.55988 23.1799 2.8555 23.3296C2.96633 23.3857 3.13807 23.4387 3.50506 23.4685C3.88349 23.4992 4.37529 23.5 5.11035 23.5L14.8897 23.5C15.6248 23.5 16.1163 23.4992 16.4944 23.4685C16.8609 23.4387 17.0325 23.3858 17.1435 23.3296C17.4402 23.1793 17.6806 22.94 17.8301 22.6483C17.8856 22.5401 17.9385 22.3719 17.9684 22.009C17.9992 21.6341 18 21.1465 18 20.4157V10.1667H15.3559C14.6714 10.1667 14.0979 10.1667 13.6289 10.1286C13.1393 10.0888 12.6764 10.0027 12.2377 9.78054C11.5657 9.44027 11.0191 8.89657 10.6761 8.22753C10.4514 7.78921 10.3643 7.32679 10.3241 6.83834C10.2857 6.37102 10.2857 5.79969 10.2857 5.11857L10.2861 2.5H5.11454C4.37808 2.5 3.88535 2.50077 3.50627 2.53154ZM12.286 2.70511C12.3008 2.71348 12.3155 2.72208 12.33 2.73092C12.465 2.81315 12.5937 2.93203 13.0719 3.40721L17.0904 7.40088C17.568 7.87556 17.6864 8.0029 17.7689 8.13671C17.7751 8.14664 17.7811 8.15662 17.787 8.16667H15.396C14.661 8.16667 14.1692 8.1659 13.7908 8.13516C13.4238 8.10536 13.252 8.05238 13.1412 7.99626C12.8455 7.84652 12.6059 7.60775 12.4558 7.31508C12.4003 7.20673 12.3473 7.03814 12.3174 6.67444C12.2865 6.29888 12.2857 5.81034 12.2857 5.07818C12.2857 5.07814 12.2857 5.07823 12.2857 5.07818L12.286 2.70511ZM5.14286 15.5556C5.14286 15.0033 5.59057 14.5556 6.14286 14.5556H13.8571C14.4094 14.5556 14.8571 15.0033 14.8571 15.5556C14.8571 16.1078 14.4094 16.5556 13.8571 16.5556H6.14286C5.59057 16.5556 5.14286 16.1078 5.14286 15.5556ZM5.14286 19.3889C5.14286 18.8366 5.59057 18.3889 6.14286 18.3889H13.8571C14.4094 18.3889 14.8571 18.8366 14.8571 19.3889C14.8571 19.9412 14.4094 20.3889 13.8571 20.3889H6.14286C5.59057 20.3889 5.14286 19.9412 5.14286 19.3889Z" />
</svg>