<svg width="16" height="17" viewBox="0 0 16 17" xmlns="http://www.w3.org/2000/svg">
    <path fill-rule="evenodd" clip-rule="evenodd"
        d="M9.23486 0.814405C9.23486 0.814407 9.23486 0.814409 9.23486 0.814411L10.8936 4.58555L14.8046 5.07186C14.8046 5.07186 14.8046 5.07187 14.8046 5.07187C16.0108 5.22184 16.3507 6.67687 15.577 7.42728C15.577 7.4273 15.577 7.42732 15.577 7.42734L12.6559 10.2606L13.4336 14.3662C13.4336 14.3662 13.4336 14.3662 13.4336 14.3662C13.6295 15.4006 12.5327 16.4661 11.4216 15.8139L11.4215 15.8139L7.99637 13.8028L4.57041 15.8134C4.57038 15.8134 4.57035 15.8134 4.57032 15.8134C3.46336 16.4631 2.36095 15.4054 2.55784 14.3662M2.55785 14.3662L3.33571 10.2606L0.414276 7.42723C0.414267 7.42722 0.414258 7.42721 0.414249 7.4272C-0.36098 6.67536 -0.017186 5.22162 1.18691 5.07187C1.18692 5.07187 1.18694 5.07187 1.18695 5.07186L5.09853 4.58533L6.75718 0.814467C6.75718 0.814465 6.75718 0.814464 6.75718 0.814463C7.23468 -0.271125 8.75707 -0.27183 9.23486 0.814405M7.6756 1.21844L7.67254 1.21709L7.6756 1.21844ZM5.46359 4.53992L5.46354 4.53993L5.46359 4.53992ZM3.57615 10.4938C3.57609 10.4937 3.57603 10.4936 3.57596 10.4936L3.57615 10.4938ZM7.6756 1.21844L7.69218 1.22573L7.6756 1.21844ZM7.99603 2.96532L6.78408 5.72065C6.78408 5.72065 6.78408 5.72065 6.78408 5.72066C6.59648 6.14715 6.19744 6.46406 5.71041 6.52464M5.71036 6.52464L2.73762 6.8944L4.96853 9.05804C4.96854 9.05805 4.96855 9.05805 4.96856 9.05806C5.30917 9.3884 5.44659 9.86312 5.36207 10.3092C5.36207 10.3092 5.36206 10.3093 5.36206 10.3093L4.78214 13.3701L7.31623 11.883C7.31626 11.883 7.31629 11.8829 7.31632 11.8829C7.7353 11.637 8.25393 11.6348 8.67618 11.8827L8.67628 11.8827L11.2093 13.37L10.6295 10.309C10.6295 10.309 10.6295 10.3089 10.6295 10.3089C10.5448 9.86171 10.6833 9.38768 11.0231 9.05813C11.0231 9.05811 11.0231 9.05808 11.0231 9.05806L13.2538 6.89443L10.281 6.52477C10.281 6.52477 10.281 6.52477 10.281 6.52477C9.79028 6.46376 9.39402 6.14358 9.20796 5.72057L7.99603 2.96532M14.1841 5.99212L14.1845 5.99166L14.1846 5.9916C14.1844 5.99177 14.1842 5.99195 14.1841 5.99212ZM11.4685 14.7385C11.4685 14.7383 11.4685 14.7382 11.4685 14.7381L11.4685 14.7385ZM3.55805 14.0885C3.5582 14.0884 3.55835 14.0883 3.55851 14.0882L3.55805 14.0885ZM1.80665 5.99151C1.80672 5.99157 1.80679 5.99164 1.80686 5.99171L1.80665 5.99151ZM14.6328 6.45376L14.6328 6.4538L14.6328 6.45376L3.86653 14.6141L3.86648 14.6141" />
</svg>