<svg width="27" height="30" viewBox="0 0 27 30" xmlns="http://www.w3.org/2000/svg">
    <path clip-rule="evenodd"
        d="M9.24241 1.2899e-06L16.0168 2.72041e-06C16.1968 2.5416e-06 16.3634 2.5417e-06 16.5135 0.00136868C16.951 0.00535158 17.3704 0.0192234 17.8082 0.124338C18.2685 0.23485 18.7071 0.417317 19.1087 0.663425C19.567 0.944225 19.9475 1.32551 20.3784 1.7572C20.4076 1.78644 20.437 1.81591 20.4667 1.84559L25.1549 6.53381C25.1829 6.56188 25.2108 6.58969 25.2384 6.61728C25.6734 7.0516 26.0538 7.43135 26.3355 7.89104C26.5815 8.29249 26.7642 8.73132 26.8748 9.19183C26.9737 9.60386 26.9921 9.99957 26.9974 10.4111C26.9991 10.4405 27 10.4702 27 10.5C27 10.5201 26.9996 10.54 26.9988 10.5599C26.9997 10.6919 26.9997 10.8353 26.9997 10.9885V23.7631C26.9997 24.5522 26.9998 25.2332 26.9539 25.7942C26.9055 26.3865 26.7985 26.9757 26.5096 27.5428C26.0779 28.39 25.3884 29.0786 24.5421 29.5098C23.975 29.7988 23.3857 29.9058 22.7934 29.9542C22.2323 30.0001 21.5513 30 20.7621 30L14.9998 30C14.1714 30 13.4999 29.3284 13.4999 28.5C13.4999 27.6716 14.1714 27 14.9998 27L20.7044 27C21.5676 27 22.1248 26.9988 22.5489 26.9642C22.9555 26.9309 23.1062 26.8745 23.1802 26.8368C23.4628 26.6928 23.693 26.4626 23.8366 26.1808C23.8743 26.1068 23.9307 25.9562 23.9639 25.5497C23.9986 25.1257 23.9997 24.5685 23.9997 23.7053V12L21.2374 12C20.4482 12 19.767 12.0001 19.2057 11.9542C18.6134 11.9058 18.0238 11.7989 17.4565 11.5098C16.6085 11.0778 15.9211 10.3878 15.4903 9.54237C15.2012 8.97489 15.0942 8.38527 15.0457 7.79229C14.9998 7.23055 14.9998 6.54854 14.9998 5.75785V3H9.30019C8.43539 3 7.8768 3.00117 7.45162 3.0359C7.04385 3.0692 6.89268 3.12575 6.81861 3.16349C6.53637 3.3073 6.30723 3.53644 6.16342 3.81868C6.12568 3.89276 6.06913 4.04392 6.03583 4.4517C6.0011 4.87688 5.99994 5.43548 5.99994 6.30029V13.5003C5.99994 14.3287 5.32837 15.0003 4.49995 15.0003C3.67153 15.0003 2.99997 14.3287 2.99997 13.5003L2.99997 6.24251C2.99994 5.45176 2.99992 4.76947 3.04582 4.20748C3.09426 3.61443 3.2012 3.02437 3.49043 2.45671C3.92186 1.60998 4.60993 0.921903 5.45665 0.490474C6.0243 0.201238 6.61435 0.094293 7.2074 0.0458538C7.76939 -4.85964e-05 8.45166 -2.55322e-05 9.24241 1.2899e-06ZM17.9998 3.62408V5.7C17.9998 6.56484 18.001 7.12308 18.0357 7.54792C18.069 7.95515 18.1255 8.10615 18.1633 8.1804C18.3078 8.46396 18.5375 8.69369 18.8185 8.83683C18.8923 8.87445 19.0431 8.93089 19.4501 8.96415C19.8745 8.99884 20.432 9 21.2951 9H23.3756C23.2854 8.90787 23.1736 8.79515 23.0336 8.65513L18.3454 3.96691C18.2051 3.82658 18.0921 3.71445 17.9998 3.62408ZM11.6892 12.4393C12.275 11.8536 13.2247 11.8536 13.8105 12.4393L17.5605 16.1893C18.1463 16.7751 18.1463 17.7249 17.5605 18.3107L6.31059 29.5607C6.02929 29.842 5.64776 30 5.24994 30H1.49998C0.671566 30 0 29.3284 0 28.5V24.75C0 24.3522 0.158034 23.9706 0.439335 23.6893L11.6892 12.4393ZM2.99997 25.3713V27H4.62863L10.2536 21.375L8.62491 19.7463L2.99997 25.3713ZM10.7462 17.625L12.3749 19.2537L14.3785 17.25L12.7499 15.6213L10.7462 17.625Z" />
</svg>