<svg width="20" height="20" viewBox="0 0 20 20" fill="none" xmlns="http://www.w3.org/2000/svg">
<path fill-rule="evenodd" clip-rule="evenodd" d="M4.16168 8.60089e-07H15.8388C16.3659 -1.70213e-05 16.8206 -3.25181e-05 17.1951 0.0305727C17.5904 0.0628795 17.9835 0.134209 18.3619 0.326982C18.9258 0.614315 19.3853 1.07276 19.6732 1.63781C19.8659 2.016 19.9372 2.40906 19.9695 2.80397C20 3.17815 20 3.6323 20 4.15839V15.829C20 16.2113 20 16.5533 19.9891 16.8513C20.0099 16.991 20.0009 17.1336 19.963 17.2692C19.9278 17.6411 19.8528 18.0089 19.6732 18.3614C19.3859 18.9254 18.9269 19.3854 18.3619 19.6732C17.9838 19.8659 17.591 19.9372 17.1962 19.9695C16.8222 20 16.3682 20 15.8421 20H4.15839C3.6323 20 3.17815 20 2.80397 19.9695C2.40906 19.9372 2.016 19.8659 1.63781 19.6732C1.07224 19.3851 0.614051 18.9248 0.326982 18.3614C0.145899 18.006 0.0722444 17.6385 0.0370658 17.2684C0.002992 16.91 0.000429417 16.4848 5.2418e-05 16.0009L8.59936e-07 4.16168C-1.70215e-05 3.63451 -3.23988e-05 3.17965 0.0305692 2.80499C0.0628619 2.40962 0.134158 2.01625 0.326982 1.63781C0.614602 1.07332 1.07332 0.614602 1.63781 0.326982C2.01625 0.134158 2.40962 0.0628619 2.80499 0.0305692C3.17965 -3.23988e-05 3.63451 -1.70213e-05 4.16168 8.60089e-07ZM18 14.1489V4.19691C18 3.62146 17.9992 3.2498 17.9761 2.96686C17.9539 2.69554 17.9163 2.59501 17.8912 2.54579C17.7956 2.35819 17.6426 2.20516 17.4539 2.109C17.4044 2.08378 17.3037 2.04612 17.0322 2.02393C16.7489 2.00078 16.3768 2 15.8002 2H4.2002C3.62365 2 3.25126 2.00078 2.9678 2.02393C2.69595 2.04614 2.59517 2.08383 2.54579 2.109C2.35763 2.20487 2.20487 2.35763 2.109 2.54579C2.08383 2.59517 2.04614 2.69595 2.02393 2.9678C2.00078 3.25126 2 3.62365 2 4.2002V13.2969L5.00872 9.78671C5.01123 9.78378 5.01376 9.78087 5.01631 9.77797C5.02192 9.77142 5.02753 9.76487 5.03313 9.75834C5.22465 9.53485 5.40785 9.32107 5.57649 9.15566C5.75846 8.97718 5.99724 8.77875 6.32113 8.66393C6.7629 8.5073 7.24495 8.51112 7.68363 8.67354C8.00582 8.79283 8.24185 8.99438 8.42163 9.17562C8.5884 9.34374 8.76911 9.56064 8.95825 9.78765L11.6513 13.0193C11.8553 13.2641 11.9691 13.3994 12.0587 13.4901C12.0618 13.4933 12.0648 13.4963 12.0677 13.4991C12.0715 13.496 12.0756 13.4926 12.0798 13.489C12.1779 13.4062 12.3046 13.2807 12.5317 13.0536L13.0521 12.5332C13.2503 12.335 13.4408 12.1444 13.6145 11.998C13.803 11.8392 14.0453 11.6669 14.3624 11.5753C14.7991 11.4493 15.2639 11.4769 15.6805 11.649C15.9851 11.7747 16.2067 11.9722 16.3768 12.1509C16.5339 12.3162 16.7029 12.5275 16.8788 12.7473L18 14.1489ZM2.00147 16.3684C2.00403 16.6735 2.01085 16.8978 2.02809 17.0791C2.05053 17.3152 2.08546 17.4072 2.109 17.4534C2.20542 17.6427 2.35871 17.7959 2.54579 17.8912C2.595 17.9163 2.69554 17.9539 2.96686 17.9761C3.2498 17.9992 3.62146 18 4.19691 18H15.8036C16.379 18 16.7505 17.9992 17.0332 17.9761C17.3041 17.954 17.4046 17.9164 17.4539 17.8912C17.6415 17.7956 17.7951 17.6421 17.8912 17.4534C17.9069 17.4226 17.9265 17.374 17.9444 17.2809L15.3358 14.0202C15.1319 13.7653 15.0175 13.6239 14.9275 13.5293C14.9234 13.5249 14.9195 13.5208 14.9158 13.517C14.9119 13.5202 14.9078 13.5236 14.9034 13.5273C14.8033 13.6117 14.6739 13.7398 14.4429 13.9708L13.9221 14.4917C13.7279 14.6859 13.5406 14.8732 13.3698 15.0173C13.1839 15.1743 12.9453 15.3443 12.6331 15.4364C12.2076 15.562 11.7489 15.5446 11.3299 15.3784C11.0278 15.2586 10.8059 15.0678 10.6357 14.8955C10.4793 14.7371 10.3107 14.5347 10.1364 14.3255L7.44369 11.0943C7.22392 10.8306 7.09952 10.6827 7.00173 10.5841C6.99732 10.5797 6.99314 10.5755 6.98919 10.5716C6.98532 10.5753 6.98123 10.5793 6.97693 10.5835C6.87789 10.6807 6.75167 10.8266 6.52865 11.0868C6.52613 11.0897 6.5236 11.0926 6.52104 11.0955L2.00147 16.3684ZM11 6C11 4.89543 11.8954 4 13 4C14.1046 4 15 4.89543 15 6C15 7.10457 14.1046 8 13 8C11.8954 8 11 7.10457 11 6Z" fill="white"/>
</svg>
