<svg width="20" height="20" viewBox="0 0 20 20" xmlns="http://www.w3.org/2000/svg">
    <path fill-rule="evenodd" clip-rule="evenodd"
        d="M10 2C5.58172 2 2 5.58172 2 10C2 12.3894 3.04749 14.5341 4.70831 16C6.11792 14.7561 7.97121 14 10 14C12.0288 14 13.882 14.7562 15.2916 16C16.9525 14.5341 18 12.3894 18 10C18 5.58172 14.4183 2 10 2ZM13.5572 17.1676C12.5615 16.4331 11.3317 16 10 16C8.6683 16 7.43843 16.4331 6.44267 17.1675C7.51419 17.7004 8.7221 18 10 18C11.2779 18 12.4858 17.7004 13.5572 17.1676ZM0 10C0 4.47715 4.47715 0 10 0C15.5228 0 20 4.47715 20 10C20 15.5228 15.5228 20 10 20C4.47715 20 0 15.5228 0 10ZM10 7C8.89543 7 8 7.89543 8 9C8 10.1046 8.89543 11 10 11C11.1046 11 12 10.1046 12 9C12 7.89543 11.1046 7 10 7ZM6 9C6 6.79086 7.79086 5 10 5C12.2091 5 14 6.79086 14 9C14 11.2091 12.2091 13 10 13C7.79086 13 6 11.2091 6 9Z" />
</svg>