<svg width="20" height="20" viewBox="0 0 20 20" xmlns="http://www.w3.org/2000/svg">
    <path fill-rule="evenodd" clip-rule="evenodd"
        d="M12.1022 8.25761L12.3857 8.67288C12.3039 8.52555 12.2088 8.38659 12.1022 8.25761Z" />
    <path fill-rule="evenodd" clip-rule="evenodd"
        d="M7.73853 0.566105C7.35768 0.480499 6.9642 0.478325 6.58385 0.557912C6.14913 0.648878 5.75643 0.877888 5.31037 1.13801L5.2344 1.18228C5.22783 1.18589 5.2213 1.18958 5.21481 1.19335L4.77135 1.45121L4.76149 1.45709L4.67402 1.50785C4.23128 1.76452 3.8404 1.99114 3.54715 2.3218C3.28942 2.61243 3.097 2.95446 2.98192 3.32493C2.85004 3.74948 2.85818 4.20404 2.86748 4.72327L2.86926 4.82494L2.87576 5.21183C2.87626 5.242 2.87696 5.26681 2.87742 5.28318L2.87763 5.2908L2.87793 5.30316C2.87525 5.44534 2.83821 5.58747 2.76902 5.71674C2.76379 5.72652 2.75755 5.73755 2.72554 5.79307L2.69781 5.84123C2.68697 5.8601 2.68501 5.8635 2.68171 5.86883C2.60485 5.99289 2.49975 6.09632 2.37502 6.17083C2.36831 6.17485 2.36272 6.17794 2.33066 6.19573L2.29801 6.21385L1.96922 6.39639L1.87588 6.44811C1.42211 6.6993 1.02339 6.92002 0.721821 7.24782C0.45758 7.53505 0.258167 7.87553 0.136498 8.24603C-0.00291933 8.67058 -0.00137661 9.12766 0.00038651 9.65003L0.000693083 9.75213L0.00185417 10.2643L0.00200978 10.3595C0.00269599 10.8823 0.00329287 11.3371 0.143476 11.7601C0.265011 12.1269 0.462753 12.4655 0.726395 12.752C1.02624 13.0778 1.42138 13.2974 1.87175 13.5477L1.96436 13.5992L2.29023 13.7808L2.32262 13.7988C2.35965 13.8195 2.36583 13.8229 2.37332 13.8274C2.49704 13.902 2.60143 14.0054 2.67755 14.1286C2.68389 14.1388 2.69082 14.1507 2.72534 14.2111L2.75029 14.2548C2.76569 14.2817 2.76846 14.2865 2.77199 14.2932C2.838 14.4184 2.87404 14.5589 2.8765 14.7034C2.87671 14.7158 2.87664 14.7306 2.87552 14.7975L2.86926 15.1687L2.86748 15.2701C2.85812 15.7915 2.84993 16.2479 2.98264 16.6737C3.0985 17.0455 3.29221 17.3881 3.55112 17.6788C3.84657 18.0105 4.24062 18.2373 4.68839 18.495L4.78178 18.5488L5.23074 18.808L5.32324 18.8615C5.76946 19.1199 6.16169 19.347 6.59529 19.4369C6.97475 19.5156 7.36694 19.5126 7.74575 19.4274C8.17759 19.3303 8.56625 19.0964 9.0076 18.8309L9.09982 18.7755L9.42158 18.5825C9.47456 18.5507 9.48787 18.543 9.4985 18.537C9.62531 18.4664 9.76607 18.4274 9.91041 18.4228C9.92167 18.4224 9.93449 18.4223 9.99943 18.4223C10.0645 18.4223 10.0773 18.4224 10.0885 18.4228C10.234 18.4275 10.3761 18.4669 10.5024 18.5375C10.509 18.5411 10.5173 18.546 10.561 18.5723L10.903 18.778L10.9946 18.8332C11.4384 19.1009 11.8282 19.336 12.2621 19.4335C12.6412 19.5187 13.0349 19.5224 13.417 19.4424C13.8516 19.3515 14.2448 19.1222 14.6906 18.8622L14.7838 18.8079L15.2339 18.5462L15.3264 18.4925C15.7694 18.2357 16.1606 18.0089 16.4539 17.6782C16.7113 17.3879 16.9041 17.0461 17.0193 16.6752C17.1501 16.254 17.142 15.8028 17.1328 15.2947L17.1309 15.1886L17.1242 14.7882C17.1233 14.7331 17.1233 14.715 17.1235 14.7004C17.1257 14.5544 17.1628 14.411 17.2313 14.283C17.2365 14.2733 17.2428 14.2621 17.2748 14.2067C17.3012 14.1609 17.3112 14.1444 17.3196 14.1309C17.3964 14.0069 17.5017 13.9032 17.6265 13.8287C17.635 13.8236 17.6446 13.8181 17.689 13.7935L17.7027 13.786L18.0315 13.6034L18.1259 13.5512C18.579 13.3004 18.9781 13.0795 19.2795 12.7519C19.5437 12.4646 19.7429 12.1245 19.8646 11.754C20.003 11.3325 20.0014 10.8782 19.9996 10.3658L19.9993 10.2586L19.9981 9.73554L19.9979 9.62859C19.9974 9.11314 19.9969 8.66009 19.8576 8.2397C19.7356 7.87148 19.5366 7.53315 19.274 7.24782C18.9745 6.92247 18.5793 6.70285 18.1305 6.45349L18.0369 6.40139L18.0257 6.39529L17.7023 6.21502C17.6511 6.18651 17.7333 6.23229 17.6254 6.17133C17.5006 6.09647 17.3961 5.99347 17.3201 5.87086C17.3173 5.86636 17.3159 5.86391 17.3089 5.85169L17.2756 5.79373C17.2432 5.73749 17.2368 5.72611 17.2315 5.71624C17.1627 5.58762 17.1258 5.44466 17.1235 5.29984C17.1233 5.28494 17.1232 5.26626 17.1242 5.21063L17.1307 4.8232L17.1326 4.71603C17.1418 4.20297 17.15 3.74954 17.0182 3.32634C16.9022 2.95437 16.7083 2.61185 16.4495 2.32134C16.1536 1.98912 15.7595 1.7622 15.3101 1.50349L15.2193 1.45118L14.7703 1.19194L14.6772 1.13809C14.2314 0.879954 13.839 0.652784 13.4056 0.562912C13.0252 0.48404 12.6331 0.487815 12.2553 0.572801C11.8238 0.669834 11.4361 0.903103 10.9959 1.16789L10.9215 1.21262L10.7664 1.30529L10.5792 1.41759C10.5247 1.45028 10.5125 1.45744 10.5024 1.46309C10.3764 1.53324 10.2355 1.57228 10.0901 1.57696C10.0789 1.57732 10.0661 1.57743 10.0012 1.57743C9.93638 1.57743 9.92248 1.57732 9.91139 1.57696C9.7659 1.57227 9.62466 1.53305 9.49836 1.46252C9.49182 1.45887 9.48706 1.456 9.45936 1.43932L9.42187 1.41676L9.09806 1.222L9.00549 1.16622C8.96103 1.13941 8.91711 1.11291 8.87362 1.08684C8.48366 0.853116 8.12866 0.653797 7.73853 0.566105ZM6.95571 2.3415C7.08365 2.31473 7.21456 2.31571 7.34037 2.34399C7.44946 2.36851 7.57215 2.42947 8.16192 2.78419L8.48573 2.97894L8.50642 2.99141L8.54261 3.01319C8.56597 3.02716 8.58979 3.04118 8.61283 3.05404C8.99343 3.26659 9.41837 3.3841 9.85292 3.3981C9.89705 3.39952 9.94194 3.39952 9.9911 3.39951H10.0112L10.0295 3.39951C10.0716 3.3995 10.1099 3.39934 10.1485 3.3981C10.5819 3.38417 11.006 3.26733 11.3862 3.05557C11.426 3.0334 11.4643 3.01041 11.5099 2.98304L11.8178 2.79838C11.8247 2.79448 11.8315 2.79048 11.8384 2.7864C12.4241 2.43503 12.5453 2.37499 12.6536 2.35064L12.6707 2.34698C12.792 2.3221 12.9166 2.32222 13.037 2.34718C13.146 2.3698 13.269 2.42816 13.8622 2.77066L14.3113 3.0299C14.9055 3.37293 15.018 3.45087 15.0925 3.53449C15.1789 3.63149 15.2435 3.7456 15.2821 3.86938C15.315 3.97509 15.3237 4.11002 15.3122 4.79255L15.3057 5.17998L15.305 5.32768C15.3117 5.76426 15.4229 6.19252 15.6282 6.57649C15.649 6.61547 15.671 6.65361 15.6957 6.69638L15.7007 6.70511L15.7142 6.72856C15.7326 6.76074 15.7548 6.79948 15.7752 6.83229C16.0046 7.20239 16.3188 7.51123 16.6907 7.73443C16.7293 7.75756 16.7658 7.77816 16.8181 7.80729L17.1511 7.9929L17.1622 7.99896C17.2145 8.02812 17.263 8.05528 17.3081 8.08063C17.7698 8.34018 17.8687 8.40889 17.9369 8.48296C18.0243 8.57801 18.0908 8.69095 18.1315 8.81378C18.1666 8.9196 18.1778 9.05498 18.1793 9.73967L18.1805 10.2628C18.1821 10.9447 18.1714 11.0796 18.137 11.1845C18.0963 11.3084 18.0299 11.4215 17.9421 11.517C17.8724 11.5927 17.7703 11.6631 17.2871 11.9333L17.15 12.0097L16.8332 12.1856C16.7226 12.2481 16.6639 12.2827 16.6483 12.2922C16.2937 12.5138 15.9947 12.8142 15.7742 13.17C15.7523 13.2054 15.732 13.2397 15.6999 13.2953L15.6948 13.3041C15.6705 13.3462 15.6489 13.3837 15.6284 13.422C15.5064 13.65 15.4178 13.8933 15.3645 14.1445C15.3276 14.3179 15.3076 14.4951 15.305 14.6735C15.3043 14.7165 15.3046 14.7567 15.3057 14.8188L15.3124 15.2192C15.3238 15.8953 15.3152 16.0292 15.2827 16.1337C15.2443 16.2573 15.1801 16.3711 15.0942 16.468C15.0208 16.5508 14.9098 16.628 14.321 16.9703L13.8708 17.232C13.2774 17.5771 13.1542 17.636 13.0451 17.6588C12.9189 17.6853 12.7878 17.6843 12.6603 17.6556C12.551 17.6311 12.4287 17.5704 11.8392 17.2159L11.4905 17.0061C11.4577 16.9864 11.4235 16.9658 11.3879 16.9459C11.0073 16.7334 10.5816 16.6156 10.147 16.6016C10.1028 16.6002 10.0591 16.6002 10.0095 16.6002H9.98938C9.93986 16.6002 9.89621 16.6002 9.8521 16.6016C9.41766 16.6156 8.99399 16.7333 8.6147 16.9446C8.57432 16.967 8.53607 16.9899 8.48725 17.0192L8.16549 17.2122C7.57809 17.5646 7.45602 17.6251 7.34736 17.6495C7.22157 17.6778 7.09086 17.6789 6.96389 17.6526C6.85476 17.63 6.7319 17.5717 6.13882 17.2293L5.68985 16.9701C5.09491 16.6267 4.98251 16.5491 4.90816 16.4656C4.8219 16.3688 4.7574 16.2548 4.71876 16.1308C4.68537 16.0236 4.67619 15.8856 4.68775 15.1995L4.69405 14.8256C4.69502 14.768 4.69582 14.721 4.69499 14.6723C4.68988 14.3718 4.63563 14.0742 4.53418 13.7918C4.49125 13.6722 4.43987 13.5554 4.38018 13.4422C4.36046 13.4048 4.33763 13.365 4.31675 13.3286L4.3038 13.306L4.29849 13.2967C4.27215 13.2506 4.24894 13.2099 4.22407 13.1697C3.99593 12.8004 3.68308 12.4906 3.31154 12.2665C3.27437 12.2441 3.23412 12.2217 3.19587 12.2004L3.17441 12.1885L3.07198 12.1314L2.84854 12.0069C2.25155 11.6742 2.13899 11.5989 2.0635 11.5169C1.97705 11.4229 1.91078 11.3103 1.8696 11.1861C1.8343 11.0795 1.82215 10.9418 1.8206 10.2601L1.81944 9.74799C1.81788 9.06008 1.82907 8.9223 1.86415 8.81545C1.90483 8.69159 1.97137 8.57814 2.05919 8.48268C2.13508 8.40018 2.24911 8.32416 2.85079 7.99011L3.17959 7.80757L3.19973 7.79641C3.23485 7.77697 3.27225 7.75627 3.30649 7.73582C3.605 7.55749 3.86573 7.32424 4.07569 7.04929C4.12955 6.97876 4.18006 6.90548 4.22702 6.82969C4.24751 6.79661 4.26882 6.75949 4.28772 6.72655L4.30042 6.70447L4.30535 6.69591C4.32977 6.65356 4.35131 6.61622 4.37188 6.57779C4.57694 6.19466 4.69005 5.7657 4.69654 5.3265C4.69707 5.29112 4.6962 5.25922 4.6957 5.24105L4.69542 5.23067C4.69497 5.21461 4.69457 5.20043 4.69425 5.18118L4.68775 4.79429C4.67627 4.11039 4.68533 3.97321 4.71853 3.86635C4.75704 3.74237 4.82123 3.62849 4.9068 3.53199C4.98019 3.44924 5.09098 3.37224 5.67939 3.03011L5.68927 3.02421L6.11043 2.77933C6.11705 2.77569 6.12363 2.77198 6.13017 2.76818C6.72382 2.423 6.84653 2.36435 6.95571 2.3415Z" />
    <path fill-rule="evenodd" clip-rule="evenodd"
        d="M10.0003 5.44486C7.4891 5.44486 5.45339 7.48429 5.45339 10.0001C5.45339 12.5158 7.4891 14.5553 10.0003 14.5553C11.9946 14.5553 13.689 13.269 14.302 11.4794C14.4609 11.0155 14.5471 10.5179 14.5471 10.0001L14.5471 9.98613C14.5399 7.56814 12.6522 5.59347 10.2721 5.45286C10.2429 5.45114 10.1841 5.44851 10.1841 5.44851C10.1841 5.44851 10.0619 5.44486 10.0003 5.44486ZM7.27214 10.0001C7.27214 8.4906 8.49357 7.26694 10.0003 7.26694C10.846 7.26694 11.6018 7.65244 12.1022 8.25761C12.2088 8.38659 12.3039 8.52555 12.3857 8.67288C12.604 9.06586 12.7284 9.51841 12.7284 10.0001C12.7284 11.5095 11.507 12.7332 10.0003 12.7332C8.49357 12.7332 7.27214 11.5095 7.27214 10.0001Z" />
</svg>