<svg width="21" height="20" viewBox="0 0 21 20" xmlns="http://www.w3.org/2000/svg">
    <path fill-rule="evenodd" clip-rule="evenodd"
        d="M9.87343 4.04922C10.602 3.93363 11.3481 4.02166 12.0298 4.30386C12.7116 4.58611 13.3019 5.05158 13.7355 5.64819C14.1695 6.24526 14.4292 6.95026 14.4871 7.68536C14.5451 8.42092 14.3984 9.15823 14.0636 9.81552C13.7288 10.4728 13.2191 11.0244 12.59 11.41C12.25 11.6184 11.8824 11.7738 11.4999 11.8725V11.9995C11.4999 12.5518 11.0521 12.9995 10.4999 12.9995C9.94757 12.9995 9.49985 12.5518 9.49985 11.9995V10.9996C9.49985 10.4473 9.94757 9.99956 10.4999 9.99956C10.8687 9.99956 11.2304 9.89754 11.5449 9.70479C11.8593 9.51212 12.114 9.23652 12.2815 8.9077C12.449 8.57894 12.5223 8.21019 12.4933 7.84255C12.4643 7.47445 12.3344 7.12215 12.1177 6.82405C11.9007 6.5255 11.6055 6.2928 11.2648 6.15179C10.9241 6.01073 10.5512 5.9667 10.1868 6.02452C9.82232 6.08235 9.48059 6.23995 9.20032 6.47948C8.91978 6.71924 8.71132 7.03137 8.5975 7.38209C8.42702 7.9074 7.86297 8.19505 7.33766 8.02457C6.81234 7.85409 6.52469 7.29004 6.69517 6.76473C6.92295 6.06286 7.34023 5.43828 7.90095 4.95907C8.46193 4.47965 9.14498 4.1648 9.87343 4.04922ZM9.45005 14.9998C9.45005 14.4475 9.89776 13.9998 10.45 13.9998H10.5497C11.1019 13.9998 11.5497 14.4475 11.5497 14.9998V15.0998C11.5497 15.3655 11.4439 15.6203 11.2557 15.8079C11.0675 15.9956 10.8124 16.1006 10.5467 16.0998L10.4471 16.0995C9.89597 16.0979 9.45005 15.6506 9.45005 15.0995V14.9998Z" />
    <path fill-rule="evenodd" clip-rule="evenodd"
        d="M13.6155 1.73816L12.3946 0.697663C11.303 -0.232564 9.69683 -0.232545 8.60524 0.697664L7.38413 1.73819C7.2368 1.86374 7.05346 1.93968 6.86024 1.95511L5.2624 2.08255C3.83364 2.19657 2.69646 3.33119 2.58222 4.76155L2.45429 6.36068C2.43875 6.55542 2.36291 6.73824 2.23841 6.88438L1.19743 8.10557C0.26708 9.19729 0.267868 10.8027 1.19772 11.894L2.23776 13.1152C2.36392 13.2632 2.43984 13.4468 2.45519 13.6391L2.58311 15.2382C2.69724 16.6671 3.831 17.8029 5.26125 17.917L6.86074 18.0445C7.0538 18.0599 7.23702 18.1358 7.38444 18.2614L8.60514 19.302C9.69682 20.2323 11.3032 20.2319 12.3947 19.3017L13.6153 18.2613C13.7624 18.136 13.9454 18.0601 14.139 18.0447L15.7386 17.917C17.169 17.8029 18.3026 16.6667 18.4166 15.2379L18.5445 13.6388C18.5599 13.4463 18.636 13.2625 18.762 13.1147L19.802 11.894C20.7323 10.8023 20.7321 9.19669 19.8019 8.10519L18.7618 6.88456C18.6356 6.73637 18.5596 6.55279 18.5442 6.36068L18.4171 4.76136C18.303 3.3314 17.1671 2.1967 15.7378 2.08264L14.1388 1.9552C13.9461 1.93981 13.7633 1.86408 13.6155 1.73816ZM11.0973 2.21989C10.7533 1.92668 10.2465 1.92668 9.90248 2.21989L8.68137 3.26042C8.2135 3.65912 7.63183 3.8999 7.01934 3.94877L5.42149 4.07621C4.97007 4.11226 4.61177 4.47086 4.57588 4.92065L4.44795 6.51977C4.39917 7.13064 4.16032 7.71261 3.76064 8.18161L2.71966 9.40281C2.42673 9.74665 2.42659 10.2525 2.71995 10.5968L3.75999 11.818C4.15795 12.2851 4.39984 12.8664 4.44882 13.4796L4.57675 15.0787C4.61276 15.53 4.97021 15.8874 5.42009 15.9234L7.0197 16.0508C7.63233 16.0997 8.2139 16.3405 8.68167 16.7392L9.90238 17.7797C10.2463 18.0729 10.7532 18.0729 11.0973 17.7796L12.3179 16.7391C12.7861 16.3402 13.3677 16.0999 13.9799 16.051L15.5795 15.9234C16.0293 15.8875 16.3869 15.5302 16.4229 15.0788L16.5509 13.4797C16.5998 12.8666 16.8415 12.2849 17.2396 11.8177L18.2796 10.5968C18.5728 10.2529 18.5729 9.74656 18.2797 9.40242L17.2396 8.1818C16.8417 7.7148 16.5995 7.13336 16.5506 6.51977L16.4234 4.92046C16.3875 4.4702 16.0298 4.11235 15.5789 4.07632L13.9799 3.94888C13.3668 3.89996 12.7857 3.65873 12.3183 3.26039L11.0973 2.21989Z" />
</svg>